<svg width="23" height="15" viewBox="0 0 23 15" fill="none" xmlns="http://www.w3.org/2000/svg">
<path fill-rule="evenodd" clip-rule="evenodd" d="M16.3431 0.293136L22.7071 6.6571C23.0976 7.04762 23.0976 7.68079 22.7071 8.07131L16.3431 14.4353C15.9526 14.8258 15.3195 14.8258 14.9289 14.4353C14.5384 14.0447 14.5384 13.4116 14.9289 13.0211L19.5858 8.3642L1 8.36421C0.447716 8.36421 6.9206e-07 7.91649 6.43778e-07 7.36421C5.95496e-07 6.81192 0.447716 6.36421 1 6.36421L19.5858 6.3642L14.9289 1.70735C14.5384 1.31683 14.5384 0.683661 14.9289 0.293136C15.3195 -0.0973883 15.9526 -0.0973884 16.3431 0.293136Z" fill="white"/>
</svg>
