<svg width="20" height="20" viewBox="0 0 20 20" fill="none" xmlns="http://www.w3.org/2000/svg">
<path d="M6.04823 0.591309H13.9515C16.9622 0.591309 19.4084 3.03754 19.4084 6.0483V13.9515C19.4084 15.3988 18.8335 16.7868 17.8101 17.8102C16.7867 18.8336 15.3987 19.4085 13.9515 19.4085H6.04823C3.03748 19.4085 0.591248 16.9623 0.591248 13.9515V6.0483C0.591248 4.60101 1.16618 3.21301 2.18956 2.18962C3.21295 1.16624 4.60095 0.591309 6.04823 0.591309ZM5.86006 2.47303C4.96175 2.47303 4.10023 2.82988 3.46502 3.46509C2.82982 4.10029 2.47297 4.96181 2.47297 5.86012V14.1397C2.47297 16.012 3.98775 17.5268 5.86006 17.5268H14.1396C15.0379 17.5268 15.8995 17.1699 16.5347 16.5347C17.1699 15.8995 17.5267 15.038 17.5267 14.1397V5.86012C17.5267 3.98781 16.0119 2.47303 14.1396 2.47303H5.86006ZM14.9394 3.88432C15.2513 3.88432 15.5504 4.00822 15.771 4.22878C15.9915 4.44934 16.1154 4.74848 16.1154 5.06039C16.1154 5.37231 15.9915 5.67145 15.771 5.892C15.5504 6.11256 15.2513 6.23647 14.9394 6.23647C14.6274 6.23647 14.3283 6.11256 14.1077 5.892C13.8872 5.67145 13.7633 5.37231 13.7633 5.06039C13.7633 4.74848 13.8872 4.44934 14.1077 4.22878C14.3283 4.00822 14.6274 3.88432 14.9394 3.88432ZM9.99984 5.29561C11.2475 5.29561 12.4441 5.79124 13.3263 6.67346C14.2085 7.55569 14.7041 8.75225 14.7041 9.99991C14.7041 11.2476 14.2085 12.4441 13.3263 13.3263C12.4441 14.2086 11.2475 14.7042 9.99984 14.7042C8.75219 14.7042 7.55563 14.2086 6.6734 13.3263C5.79118 12.4441 5.29555 11.2476 5.29555 9.99991C5.29555 8.75225 5.79118 7.55569 6.6734 6.67346C7.55563 5.79124 8.75219 5.29561 9.99984 5.29561ZM9.99984 7.17733C9.25125 7.17733 8.53332 7.4747 8.00398 8.00404C7.47464 8.53338 7.17727 9.25131 7.17727 9.99991C7.17727 10.7485 7.47464 11.4664 8.00398 11.9958C8.53332 12.5251 9.25125 12.8225 9.99984 12.8225C10.7484 12.8225 11.4664 12.5251 11.9957 11.9958C12.525 11.4664 12.8224 10.7485 12.8224 9.99991C12.8224 9.25131 12.525 8.53338 11.9957 8.00404C11.4664 7.4747 10.7484 7.17733 9.99984 7.17733Z" fill="#008060"/>
</svg>
