<svg width="24" height="14" viewBox="0 0 24 14" fill="none" xmlns="http://www.w3.org/2000/svg">
<path d="M7.08969 7.84098V7.85603C7.08969 8.1063 6.98619 8.33116 6.8206 8.49299C6.73889 8.57828 6.64073 8.6461 6.53206 8.69235C6.42338 8.7386 6.30645 8.76232 6.18834 8.76208H6.17799H6.17894H6.17705C5.93301 8.76208 5.69897 8.66513 5.5264 8.49257C5.35384 8.32001 5.25689 8.08596 5.25689 7.84192V7.83063C5.25689 7.58224 5.36039 7.35832 5.52598 7.19837C5.60862 7.11295 5.7076 7.04503 5.81702 6.99864C5.92645 6.95225 6.04409 6.92834 6.16294 6.92834H6.17894H6.17799C6.41887 6.93079 6.6492 7.0275 6.81962 7.19774C6.99005 7.36799 7.08699 7.59822 7.08969 7.8391V7.84004V7.84098ZM18.3979 7.82875C18.3979 8.07304 18.3008 8.30732 18.1281 8.48006C17.9554 8.6528 17.7211 8.74985 17.4768 8.74985C17.2325 8.74985 16.9982 8.6528 16.8255 8.48006C16.6527 8.30732 16.5557 8.07304 16.5557 7.82875V7.81275C16.5557 7.56531 16.6592 7.34138 16.8248 7.18237C16.999 7.01183 17.2332 6.91641 17.477 6.91658C17.7208 6.91676 17.9548 7.01252 18.1288 7.18331C18.2143 7.2647 18.2824 7.36265 18.3288 7.47118C18.3752 7.57972 18.399 7.69658 18.3988 7.81463V7.83063V7.82969L18.3979 7.82875ZM8.20649 7.83815C8.21204 7.58644 8.16725 7.33616 8.07475 7.102C7.98225 6.86783 7.8439 6.65451 7.66782 6.47455C7.49174 6.29459 7.28149 6.15162 7.0494 6.05403C6.81731 5.95645 6.56806 5.90621 6.31629 5.90627C6.06452 5.90633 5.8153 5.95669 5.58325 6.0544C5.35121 6.1521 5.14103 6.29517 4.96504 6.47522C4.78905 6.65527 4.65081 6.86866 4.55842 7.10287C4.46604 7.33708 4.42137 7.58739 4.42705 7.8391C4.43807 8.33298 4.64201 8.80292 4.9952 9.14832C5.34839 9.49371 5.82276 9.68711 6.31677 9.68711C6.81078 9.68711 7.28515 9.49371 7.63834 9.14832C7.99153 8.80292 8.19547 8.33298 8.20649 7.8391V7.83815ZM19.5053 7.82875C19.5051 7.39151 19.3533 6.96786 19.0758 6.62995C18.7984 6.29205 18.4123 6.0608 17.9834 5.97559C17.5546 5.89038 17.1095 5.95649 16.7239 6.16264C16.3383 6.3688 16.0361 6.70225 15.8688 7.10621C15.7015 7.51016 15.6794 7.95964 15.8062 8.37806C15.9331 8.79648 16.2011 9.15798 16.5646 9.40096C16.9281 9.64395 17.3646 9.75341 17.7998 9.71068C18.2349 9.66796 18.6418 9.4757 18.9511 9.16665C19.2926 8.83453 19.5053 8.37068 19.5053 7.85791V7.82781V7.82969V7.82875ZM9.03821 7.83815C9.03821 8.56205 8.75064 9.25629 8.23878 9.76816C7.72691 10.28 7.03267 10.5676 6.30877 10.5676C5.58488 10.5676 4.89064 10.28 4.37877 9.76816C3.8669 9.25629 3.57934 8.56205 3.57934 7.83815V7.79958C3.57934 7.05818 3.88794 6.38923 4.38283 5.91315L4.38377 5.91221C4.62955 5.66047 4.92326 5.4605 5.24758 5.32411C5.5719 5.18773 5.92025 5.11769 6.27208 5.11813H6.31724H6.31536H6.35394C6.70511 5.11762 7.05279 5.18784 7.37624 5.32459C7.69969 5.46135 7.99229 5.66183 8.2366 5.91409L8.23754 5.91504C8.73055 6.39299 9.03727 7.061 9.03727 7.80146V7.84286V7.84098L9.03821 7.83815ZM20.3473 7.82875V7.83251C20.3473 8.464 20.1282 9.07593 19.7275 9.56402C19.3268 10.0521 18.7693 10.3862 18.1499 10.5092C17.5305 10.6323 16.8876 10.5368 16.3308 10.239C15.7739 9.94125 15.3375 9.45957 15.096 8.87609C14.8545 8.29261 14.8227 7.64344 15.0062 7.03918C15.1897 6.43493 15.577 5.91299 16.1022 5.5623C16.6273 5.2116 17.2578 5.05386 17.8863 5.11595C18.5147 5.17804 19.1022 5.45612 19.5486 5.9028C20.0416 6.38076 20.3473 7.04877 20.3473 7.78829V7.83063V7.82875ZM10.9002 7.85791L10.9011 7.79205C10.9018 7.20749 10.7846 6.62879 10.5567 6.09049C10.3288 5.55219 9.99473 5.06534 9.5745 4.65899L9.57356 4.65805C9.16732 4.23728 8.6804 3.90275 8.14191 3.67449C7.60342 3.44623 7.02443 3.32891 6.43955 3.32955L6.36993 3.33049H6.37369H6.34359C5.52033 3.33049 4.74977 3.5563 4.09117 3.94958L4.11092 3.93829C2.75326 4.73802 1.85568 6.19353 1.85568 7.85791C1.85568 9.52229 2.75232 10.9778 4.08929 11.7662L4.10998 11.7775C4.7858 12.1777 5.55724 12.3877 6.34264 12.3853H6.37652H6.37463L6.44049 12.3863C7.02506 12.3869 7.60376 12.2698 8.14206 12.0419C8.68035 11.8139 9.16721 11.4799 9.57356 11.0597L9.5745 11.0587C9.99527 10.6525 10.3298 10.1656 10.5581 9.62707C10.7863 9.08858 10.9036 8.50959 10.903 7.92471L10.9021 7.85603V7.85979L10.9002 7.85791ZM17.4486 2.24192C15.8867 1.55603 14.0671 1.15617 12.1534 1.15617L11.9916 1.15711H12C10.041 1.1232 8.09669 1.50212 6.29372 2.2692L6.38498 2.23439H6.40098C7.18377 2.23439 7.92893 2.39904 8.60259 2.69447L8.56778 2.68036C9.26307 2.97673 9.85676 3.38224 10.3564 3.8809C10.8559 4.38778 11.2564 4.98353 11.5371 5.63748L11.5512 5.67418C11.8335 6.31302 11.9972 7.05818 11.9972 7.84098V7.85791V7.85697C11.9972 6.33372 12.6003 4.9516 13.5797 3.93547L13.5779 3.93735C14.0688 3.44068 14.6462 3.03767 15.2818 2.7481L15.3175 2.73305C15.9825 2.42543 16.7038 2.25855 17.4363 2.24286H17.4429L17.4486 2.24192ZM22.1434 7.85697C22.1422 6.81069 21.7782 5.79721 21.1135 4.9892C20.4488 4.1812 19.5245 3.62865 18.4981 3.42569C17.4716 3.22273 16.4066 3.38192 15.4844 3.87614C14.5622 4.37036 13.8399 5.16903 13.4405 6.13609C13.0411 7.10315 12.9894 8.17876 13.2941 9.17969C13.5988 10.1806 14.2411 11.0449 15.1116 11.6254C15.9821 12.2058 17.027 12.4665 18.0681 12.363C19.1093 12.2595 20.0823 11.7983 20.8215 11.0578C21.2407 10.6514 21.5738 10.1649 21.8011 9.6271C22.0283 9.08933 22.1451 8.51135 22.1444 7.92754L22.1434 7.85321V7.85697ZM19.5373 2.3106H23.2904C23.0052 2.64263 22.763 3.00932 22.5697 3.402L22.5565 3.43211C22.3773 3.77718 22.2469 4.14542 22.1689 4.52633L22.1641 4.55455C22.8665 5.51388 23.2437 6.67271 23.2405 7.86168C23.2405 9.02075 22.8818 10.1514 22.2139 11.0987C21.5459 12.0459 20.6012 12.7633 19.5094 13.1524C18.4176 13.5416 17.2321 13.5834 16.1156 13.2722C14.9991 12.9611 14.0062 12.3121 13.273 11.4144L13.2655 11.404C12.8553 11.913 12.4385 12.486 12.0508 13.0797L12 13.1615C11.8363 12.8742 11.6554 12.5971 11.4581 12.3317L11.4732 12.3533C11.1959 11.9582 10.9525 11.6399 10.743 11.3984C9.81818 12.5318 8.48762 13.2597 7.03435 13.4272C5.58109 13.5948 4.1198 13.1887 2.9613 12.2954C1.8028 11.4022 1.0385 10.0922 0.830972 8.64409C0.623441 7.19599 0.989051 5.72407 1.85004 4.54138L1.83875 4.55832C1.75912 4.15915 1.62323 3.77331 1.43512 3.41235L1.44641 3.43587C1.249 3.02891 0.999456 2.64938 0.704071 2.30684L0.709716 2.31342H4.28687C5.3305 1.62944 6.4773 1.11767 7.68337 0.797699L7.76617 0.778882C9.12263 0.407521 10.5231 0.221424 11.9295 0.225657H12.0038H12H12.1007C13.5336 0.225657 14.9186 0.426059 16.2311 0.800522L16.1248 0.775118C17.4213 1.13547 18.5559 1.66141 19.5796 2.34165L19.5354 2.31437L19.5373 2.3106Z" fill="#008060"/>
</svg>
