<svg width="20" height="20" viewBox="0 0 20 20" fill="none" xmlns="http://www.w3.org/2000/svg">
<path d="M10.0377 0.59112C4.90058 0.59112 0.713758 4.77795 0.713758 9.91504C0.713758 11.5616 1.14655 13.161 1.95569 14.5723L0.638489 19.4083L5.578 18.1099C6.94225 18.8532 8.47585 19.2484 10.0377 19.2484C15.1748 19.2484 19.3616 15.0616 19.3616 9.92445C19.3616 7.43117 18.3925 5.08843 16.6331 3.32902C15.7705 2.45772 14.7431 1.76688 13.6107 1.29681C12.4784 0.826744 11.2637 0.586849 10.0377 0.59112ZM10.0471 2.16236C12.117 2.16236 14.0552 2.9715 15.5229 4.43924C16.2432 5.15933 16.8143 6.01454 17.2034 6.95582C17.5925 7.89709 17.792 8.90592 17.7904 9.92445C17.7904 14.196 14.3092 17.6677 10.0377 17.6677C8.64521 17.6677 7.28096 17.3008 6.09548 16.5857L5.81322 16.4258L2.87774 17.1973L3.65865 14.3371L3.47048 14.036C2.69327 12.8022 2.28218 11.3732 2.28499 9.91504C2.2944 5.64354 5.76618 2.16236 10.0471 2.16236ZM6.73526 5.60591C6.58472 5.60591 6.33069 5.66236 6.11429 5.89757C5.90731 6.13279 5.29575 6.70671 5.29575 7.84515C5.29575 8.993 6.13311 10.0938 6.23661 10.2538C6.36833 10.4137 7.89252 12.7659 10.2353 13.7632C10.7904 14.0172 11.2232 14.1583 11.5619 14.2618C12.117 14.4406 12.625 14.4124 13.0296 14.3559C13.4812 14.29 14.4033 13.7914 14.6009 13.2457C14.7984 12.7 14.7984 12.239 14.742 12.1355C14.6761 12.0414 14.5256 11.9849 14.2904 11.8814C14.0552 11.7497 12.9073 11.1852 12.7003 11.1099C12.4839 11.0347 12.3522 10.997 12.1734 11.2228C12.0229 11.4581 11.5713 11.9849 11.4396 12.1355C11.2984 12.2954 11.1667 12.3142 10.9409 12.2013C10.6963 12.079 9.94359 11.8344 9.05919 11.0441C8.36295 10.4231 7.90193 9.66101 7.7608 9.4258C7.6479 9.19999 7.75139 9.05886 7.86429 8.95537C7.96779 8.85187 8.11833 8.68252 8.21241 8.54139C8.33472 8.40967 8.37236 8.30617 8.44763 8.15564C8.5229 7.99569 8.48526 7.86397 8.42881 7.75107C8.37236 7.64757 7.90193 6.48091 7.70435 6.01988C7.51618 5.56827 7.328 5.62472 7.17747 5.61531C7.04575 5.61531 6.89521 5.60591 6.73526 5.60591Z" fill="#008060"/>
</svg>
