<svg width="42" height="23" viewBox="0 0 42 23" fill="none" xmlns="http://www.w3.org/2000/svg">
<path fill-rule="evenodd" clip-rule="evenodd" d="M0.75 1.36523C0.75 0.674878 1.30964 0.115234 2 0.115234H40C40.6904 0.115234 41.25 0.674878 41.25 1.36523C41.25 2.05559 40.6904 2.61523 40 2.61523H2C1.30964 2.61523 0.75 2.05559 0.75 1.36523Z" fill="#868686"/>
<path fill-rule="evenodd" clip-rule="evenodd" d="M0.75 11.3652C0.75 10.6749 1.30964 10.1152 2 10.1152H32.7619C33.4523 10.1152 34.0119 10.6749 34.0119 11.3652C34.0119 12.0556 33.4523 12.6152 32.7619 12.6152H2C1.30964 12.6152 0.75 12.0556 0.75 11.3652Z" fill="#868686"/>
<path fill-rule="evenodd" clip-rule="evenodd" d="M0.75 21.3652C0.75 20.6749 1.30964 20.1152 2 20.1152H24.619C25.3094 20.1152 25.869 20.6749 25.869 21.3652C25.869 22.0556 25.3094 22.6152 24.619 22.6152H2C1.30964 22.6152 0.75 22.0556 0.75 21.3652Z" fill="#868686"/>
</svg>
